<svg width="11" height="13" viewBox="0 0 11 13" fill="none" xmlns="http://www.w3.org/2000/svg">
<path d="M3.06922 0.541656C2.73246 0.541656 2.45916 0.822639 2.45916 1.16885C1.11031 1.16885 0 2.29341 0 3.67762V4.93201L0.0189154 9.94955C0.0189154 11.3331 1.11153 12.4583 2.45916 12.4583H8.55976C9.90738 12.4583 11 11.335 11 9.94955L10.9811 4.93201V3.67762C10.9811 2.2909 9.90616 1.16885 8.55976 1.16885C8.55976 0.822639 8.28706 0.541656 7.9497 0.541656C7.61295 0.541656 7.33964 0.822639 7.33964 1.16885H3.67928C3.67928 0.822639 3.40658 0.541656 3.06922 0.541656ZM2.45916 2.42324C2.45916 2.76945 2.73246 3.05043 3.06922 3.05043C3.40658 3.05043 3.67928 2.76945 3.67928 2.42324H7.33964C7.33964 2.76945 7.61295 3.05043 7.9497 3.05043C8.28706 3.05043 8.55976 2.76945 8.55976 2.42324C9.229 2.42324 9.76096 2.98018 9.76096 3.67762V4.30481C8.58721 4.30481 2.39388 4.30481 1.22012 4.30481V3.67762C1.22012 2.98959 1.78077 2.42324 2.45916 2.42324ZM1.22012 5.5592C2.39388 5.5592 8.58721 5.5592 9.76096 5.5592L9.77988 9.94955C9.77988 10.6401 9.23388 11.2039 8.55976 11.2039H2.45916C1.78565 11.2039 1.23904 10.6426 1.23904 9.94955L1.22012 5.5592Z" fill="white"/>
</svg>
