<svg width="14" height="10" viewBox="0 0 14 10" fill="none" xmlns="http://www.w3.org/2000/svg">
<g clip-path="url(#clip0_779_458)">
<path fill-rule="evenodd" clip-rule="evenodd" d="M0 0H14V10H0V0Z" fill="white"/>
<rect x="6" width="2" height="10" fill="#FF0000"/>
<rect y="6" width="2" height="14" transform="rotate(-90 0 6)" fill="#FF0000"/>
<path d="M13.5 -0.5L9 3H11L14.5 0.5L13.5 -0.5Z" fill="#FF0000" stroke="#FF0000" stroke-width="0.3"/>
<path d="M0 -1L5 3H3L-1 0L0 -1Z" fill="#FF0000"/>
<path d="M13.5 10.5L9 7H11L14.5 9.5L13.5 10.5Z" fill="#FF0000"/>
<path d="M0 10.5L5 7H3L-1 9.5L0 10.5Z" fill="#FF0000"/>
<path d="M0 -1L5 3H3L-1 0L0 -1Z" stroke="#FF0000" stroke-width="0.3"/>
<path d="M13.5 10.5L9 7H11L14.5 9.5L13.5 10.5Z" stroke="#FF0000" stroke-width="0.3"/>
<path d="M0 10.5L5 7H3L-1 9.5L0 10.5Z" stroke="#FF0000" stroke-width="0.3"/>
<path d="M12.5 3H14V2L12.5 3Z" fill="#0047FF"/>
<path d="M9 2V0H11.5L9 2Z" fill="#0047FF"/>
<path d="M5 0V2L2.5 0H5Z" fill="#0047FF"/>
<path d="M1.5 3H0V2L1.5 3Z" fill="#0047FF"/>
<path d="M1.5 7H0V8L1.5 7Z" fill="#0047FF"/>
<path d="M5 8V10H2.5L5 8Z" fill="#0047FF"/>
<path d="M9 8V10H11.5L9 8Z" fill="#0047FF"/>
<path d="M12.5 3H14V2L12.5 3Z" stroke="#0047FF" stroke-width="0.3"/>
<path d="M9 2V0H11.5L9 2Z" stroke="#0047FF" stroke-width="0.3"/>
<path d="M5 0V2L2.5 0H5Z" stroke="#0047FF" stroke-width="0.3"/>
<path d="M1.5 3H0V2L1.5 3Z" stroke="#0047FF" stroke-width="0.3"/>
<path d="M1.5 7H0V8L1.5 7Z" stroke="#0047FF" stroke-width="0.3"/>
<path d="M5 8V10H2.5L5 8Z" stroke="#0047FF" stroke-width="0.3"/>
<path d="M9 8V10H11.5L9 8Z" stroke="#0047FF" stroke-width="0.3"/>
<path d="M12.5 7H14V8L12.5 7Z" fill="#0047FF" stroke="#0047FF" stroke-width="0.3"/>
</g>
<defs>
<clipPath id="clip0_779_458">
<rect width="14" height="10" rx="1" fill="white"/>
</clipPath>
</defs>
</svg>
