<svg width="168" height="30" viewBox="0 0 168 30" fill="none" xmlns="http://www.w3.org/2000/svg">
<path d="M26.3942 3.50402C25.8894 3.53852 25.3952 3.55579 24.9139 3.55579C19.2796 3.55579 15.2878 1.25714 13.7563 0.204851C13.7158 0.176819 13.686 0.157412 13.6689 0.14663L13.441 0L13.3345 0.0690024L13.2131 0.14663C13.196 0.157412 13.1662 0.176819 13.1257 0.204851C11.4642 1.3477 6.90368 3.95686 0.487795 3.50402L0 3.46952L0.0340818 3.96332C0.038342 4.03449 0.517616 11.1461 0.979851 14.1843C2.01722 21.0286 5.30185 24.9314 7.87289 26.9994C10.2991 28.9486 12.6699 29.7464 13.3345 29.878L13.441 29.8932L13.4985 29.8867C14.0886 29.7876 16.519 29.0005 19.0091 26.9994C21.5801 24.9314 24.8648 21.0286 25.9022 14.1843C26.3644 11.1461 26.8436 4.03449 26.848 3.96332L26.882 3.46952L26.3942 3.50402ZM25.0608 14.0549C23.2182 26.1951 14.3186 28.7998 13.441 29.0262C13.4133 29.0197 13.3771 29.009 13.3345 28.9982C12.0053 28.6253 3.60627 25.8091 1.82124 14.0549C1.4357 11.5126 1.03523 6.0528 0.918077 4.39243C7.0251 4.68784 11.4579 2.33315 13.3345 1.10188C13.3707 1.07816 13.4069 1.05444 13.441 1.03072C15.2537 2.24041 19.7376 4.69431 25.9639 4.39243C25.8468 6.0528 25.4463 11.5126 25.0608 14.0549Z" fill="#0688FF"/>
<path d="M22.1365 7.49118C17.8677 7.79306 14.8366 6.05722 13.731 5.2982C13.7033 5.2788 13.682 5.2637 13.6693 5.25723L13.4413 5.1106L13.3348 5.1796L13.2134 5.25723C13.2006 5.2637 13.1793 5.2788 13.1517 5.2982C12.0461 6.05722 9.01497 7.79306 4.74622 7.49118L4.25842 7.45668L4.29252 7.95048C4.3053 8.1467 4.61841 12.7828 4.92942 14.8313C5.63448 19.4739 7.86472 22.1369 9.6114 23.5536C11.2005 24.8432 12.7959 25.4319 13.3348 25.5397L13.4413 25.5547L13.501 25.5482C13.9888 25.4686 15.6353 24.8819 17.2713 23.5536C19.018 22.1369 21.2483 19.4739 21.9533 14.8313C22.2643 12.7828 22.5775 8.1467 22.5901 7.95048L22.6243 7.45668L22.1365 7.49118ZM21.1119 14.6998C19.9147 22.5898 14.1741 24.4765 13.4413 24.6835C13.4136 24.675 13.3774 24.6642 13.3348 24.6513C12.274 24.3235 6.92107 22.2857 5.7708 14.6998C5.52371 13.0696 5.26598 9.64534 5.17652 8.37743C9.1236 8.52622 12.0206 7.04914 13.3348 6.20817C13.3711 6.18445 13.4073 6.16072 13.4413 6.13917C14.7024 6.96504 17.6483 8.53054 21.7062 8.37743C21.6167 9.64534 21.359 13.0696 21.1119 14.6998Z" fill="#0688FF"/>
<path d="M17.8779 11.4782C15.7564 11.6269 14.2546 10.7666 13.7051 10.3914L13.4409 10.2189L13.3344 10.2879L13.1768 10.3914C12.6272 10.7666 11.1255 11.6269 9.00391 11.4782L8.51611 11.4437L8.55019 11.9375C8.55658 12.0366 8.71847 14.4194 8.87822 15.476C9.51939 19.7153 12.5484 21.0178 13.3344 21.1946L13.4409 21.2141L13.4984 21.2053C14.1992 21.0738 17.3475 19.808 18.0036 15.476C18.1634 14.4194 18.3253 12.0366 18.3317 11.9375L18.3657 11.4437L17.8779 11.4782ZM17.1622 15.3466C16.5892 19.1223 13.9649 20.166 13.4409 20.3386C13.4111 20.3299 13.377 20.3169 13.3344 20.2997C12.6315 20.0409 10.2607 18.9132 9.71963 15.3466C9.60673 14.6027 9.48957 13.1213 9.43419 12.358C11.2384 12.373 12.5995 11.7477 13.3344 11.3078C13.3728 11.2862 13.4068 11.2647 13.4409 11.2431C14.1311 11.6744 15.537 12.3709 17.4477 12.358C17.3923 13.1213 17.2751 14.6027 17.1622 15.3466Z" fill="#0688FF"/>
<path d="M18.3659 11.4437L18.3318 11.9375C18.3254 12.0366 18.1635 14.4194 18.0038 15.476C17.3477 19.808 14.1994 21.0738 13.4986 21.2053L13.4411 21.2141V20.3386C13.9651 20.166 16.5894 19.1223 17.1624 15.3466C17.2753 14.6027 17.3924 13.1213 17.4478 12.358C15.5371 12.3709 14.1313 11.6744 13.4411 11.2431V10.2189L13.7052 10.3914C14.2548 10.7666 15.7565 11.6269 17.8781 11.4782L18.3659 11.4437Z" fill="#0D5292"/>
<path d="M22.6239 7.45668L22.5899 7.95048C22.5771 8.1467 22.2641 12.7828 21.9529 14.8313C21.2479 19.4739 19.0177 22.1369 17.271 23.5536C15.6351 24.8819 13.9885 25.4686 13.5008 25.5482L13.4411 25.5547V24.6835C14.1739 24.4765 19.9145 22.5898 21.1115 14.6998C21.3586 13.0696 21.6165 9.64534 21.7058 8.37743C17.6481 8.53054 14.7021 6.96504 13.4411 6.13917V5.1106L13.669 5.25723C13.6818 5.2637 13.7031 5.2788 13.7308 5.2982C14.8363 6.05722 17.8675 7.79306 22.1362 7.49118L22.6239 7.45668Z" fill="#0D5292"/>
<path d="M26.882 3.46952L26.848 3.96332C26.8438 4.03449 26.3644 11.1461 25.9022 14.1843C24.8648 21.0286 21.5803 24.9314 19.0092 26.9994C16.5191 29.0005 14.0887 29.7876 13.4986 29.8867L13.4411 29.8932V29.0262C14.3187 28.7998 23.2182 26.1951 25.0608 14.0549C25.4465 11.5126 25.8468 6.0528 25.9641 4.39243C19.7377 4.69431 15.2538 2.24041 13.4411 1.03072V0L13.669 0.14663C13.6861 0.157412 13.7159 0.176819 13.7564 0.204851C15.2879 1.25714 19.2797 3.55579 24.9139 3.55579C25.3952 3.55579 25.8894 3.53852 26.3942 3.50402L26.882 3.46952Z" fill="#0D5292"/>
<path d="M46.8852 8.90415V13.5951H40.7357V8.90415H38.8369V20.8784H40.7357V15.3939H46.8852V20.8784H48.7841V8.90415H46.8852ZM59.4974 8.90415L56.2398 14.0007L52.9647 8.90415H50.7L55.2816 15.7466V20.8784H57.1979V15.7466L61.7796 8.90415H59.4974ZM69.2493 8.90415H63.692V20.8784H65.5909V16.7694H69.197C71.6011 16.7694 73.4302 15.1999 73.4302 12.8368C73.4302 10.4737 71.6185 8.90415 69.2493 8.90415ZM69.1099 15.0059H65.5909V10.7029H69.1099C70.399 10.7029 71.4791 11.5671 71.4791 12.8721C71.4791 14.1594 70.399 15.0059 69.1099 15.0059ZM77.7548 19.0796V15.3939H83.1204V13.5951H77.7548V10.7029H84.4966V8.90415H75.8559V20.8784H84.6011V19.0796H77.7548ZM93.5832 16.0817C95.273 15.6584 96.4228 14.4416 96.4228 12.5723C96.4228 10.2092 94.611 8.90415 92.2418 8.90415H87.033V20.8784H88.9319V16.2404H91.3534L94.733 20.8784H97.1022L93.5832 16.0817ZM88.9319 14.4769V10.7029H92.1025C93.3916 10.7029 94.4717 11.3025 94.4717 12.6075C94.4717 13.8949 93.3916 14.4769 92.1025 14.4769H88.9319ZM109.091 21.1429C110.485 21.1429 111.6 20.7021 112.297 20.2612V20.8784H114.196V13.8773H108.76V15.676H112.297V18.2684C111.6 18.7975 110.468 19.3442 109.091 19.3442C106.6 19.3442 104.841 17.369 104.841 14.8825C104.841 12.3783 106.531 10.4208 109.405 10.4208C110.45 10.4208 111.321 10.5795 112.036 10.8969C112.75 11.1967 113.255 11.4789 113.569 11.7434V9.69773C113.238 9.48611 112.698 9.25686 111.966 9.00996C111.252 8.74544 110.398 8.62199 109.405 8.62199C105.52 8.56909 102.82 11.4612 102.872 14.8825C102.82 18.3037 105.433 21.1429 109.091 21.1429ZM121.676 21.1429C124.48 21.1429 126.519 19.7321 126.519 16.3109V8.90415H124.62V16.2756C124.62 18.4095 123.575 19.2913 121.676 19.2913C120.073 19.2913 118.732 18.4095 118.732 16.2756V8.90415H116.833V16.3109C116.833 19.7321 118.871 21.1429 121.676 21.1429ZM128.192 20.8784H130.404L131.537 18.0392H137.233L138.366 20.8784H140.578L135.317 8.90415H133.453L128.192 20.8784ZM132.251 16.2404L134.394 11.1438L136.519 16.2404H132.251ZM149.061 16.0817C150.751 15.6584 151.9 14.4416 151.9 12.5723C151.9 10.2092 150.089 8.90415 147.719 8.90415H142.511V20.8784H144.41V16.2404H146.831L150.211 20.8784H152.58L149.061 16.0817ZM144.41 14.4769V10.7029H147.58C148.869 10.7029 149.949 11.3025 149.949 12.6075C149.949 13.8949 148.869 14.4769 147.58 14.4769H144.41ZM158.807 8.90415H154.521V20.8784H158.807C162.727 20.8784 165.235 18.3566 165.235 14.8825C165.235 11.3907 162.866 8.90415 158.807 8.90415ZM158.667 19.062H156.42V10.7029H158.65C161.734 10.7029 163.267 12.2901 163.267 14.8825C163.179 17.757 161.403 19.062 158.667 19.062Z" fill="white"/>
</svg>
