<svg width="20" height="21" viewBox="0 0 20 21" fill="none" xmlns="http://www.w3.org/2000/svg">
<path fill-rule="evenodd" clip-rule="evenodd" d="M9.99994 0.5C15.5229 0.5 20.0001 4.97707 20.0001 10.5C20.0001 16.0229 15.5229 20.5 9.99994 20.5C4.47717 20.5 -6.10352e-05 16.0229 -6.10352e-05 10.5C-6.10352e-05 4.97707 4.47717 0.5 9.99994 0.5Z" fill="#F01010"/>
<path fill-rule="evenodd" clip-rule="evenodd" d="M9.57412 7.25804H8.72693C8.58825 7.24227 8.41885 7.24227 8.2496 7.22715C8.20359 7.24227 8.18766 7.2891 8.17221 7.35055C8.15693 7.41233 8.17221 7.4585 8.20359 7.50451L8.38828 7.52012C8.61882 7.5658 8.78822 7.61214 8.89666 7.6588C9.00413 7.72009 9.08086 7.82804 9.11208 7.96672C9.14281 8.1054 9.15809 8.28993 9.14281 8.52127C9.12704 8.84464 9.11208 9.22946 9.09663 9.67623C9.08086 10.1235 9.0503 10.5854 9.01925 11.0632C8.98884 11.8018 8.92251 13.6013 8.72173 14.1341C8.67523 14.2573 8.59849 14.3346 8.50599 14.3814C8.39787 14.4269 8.27415 14.4732 8.12019 14.4892L7.87307 14.5199C7.82706 14.5503 7.81145 14.5971 7.82706 14.6742C7.82706 14.7205 7.84234 14.7664 7.88868 14.8129C8.08898 14.7976 8.27415 14.782 8.47477 14.7664H9.69378C9.9248 14.782 10.1256 14.7976 10.3106 14.8129C10.3571 14.782 10.3878 14.7358 10.3878 14.6742C10.3878 14.6121 10.3725 14.5661 10.3259 14.5199L9.89424 14.4892C9.75507 14.4732 9.64712 14.4427 9.57022 14.3814C9.53153 14.35 9.50048 14.3071 9.47739 14.2547C9.38635 14.0358 9.3844 13.6652 9.38911 13.4352C9.39903 12.9577 9.40488 12.4804 9.42 12.0027C9.43544 11.5252 9.45089 11.1089 9.46601 10.7548C9.48097 10.4314 9.51267 10.0921 9.52763 9.75329C9.54307 9.4148 9.55819 9.0755 9.57412 8.73669H9.60469C9.72809 8.99844 9.85148 9.26035 9.95927 9.55299C10.0827 9.83051 10.2057 10.1079 10.3286 10.3699L11.3609 12.5721C11.4538 12.7576 11.5613 12.9886 11.6842 13.2658C11.8232 13.5584 11.9614 13.8355 12.085 14.1127C12.1502 14.2595 12.2066 14.397 12.2544 14.5264C12.2667 14.5264 12.3531 14.8103 12.3627 14.8433C12.422 14.9034 12.5192 14.902 12.5787 14.8433C12.6745 14.6137 12.7745 14.3814 12.8858 14.1593C13.1777 13.5044 13.482 12.879 13.8257 12.2492L14.827 10.262C14.9042 10.0921 14.981 9.90725 15.0888 9.70728C15.1967 9.4917 15.3043 9.29141 15.397 9.122C15.4739 8.93699 15.5354 8.81391 15.5659 8.76758H15.5815L15.6128 13.528C15.6277 13.7742 15.6128 13.9582 15.5973 14.097C15.585 14.2073 15.5539 14.312 15.4481 14.3658C15.386 14.4427 15.2627 14.4732 15.0623 14.4892L14.7228 14.5199C14.6919 14.5503 14.6766 14.5971 14.6919 14.6742C14.6919 14.7205 14.7075 14.7664 14.754 14.8129C14.985 14.7976 15.2315 14.782 15.463 14.7664H16.7901C17.0212 14.782 17.2525 14.7976 17.4845 14.8129C17.5308 14.782 17.546 14.7358 17.546 14.6742C17.5612 14.6121 17.546 14.5661 17.5152 14.5199L17.1449 14.4892C16.9752 14.4732 16.8518 14.4269 16.7742 14.3499C16.698 14.273 16.636 14.1803 16.6206 14.0569C16.6048 13.9184 16.5894 13.7482 16.5894 13.5633C16.5578 12.9902 16.5364 12.4079 16.5214 11.8335C16.5058 11.2165 16.4749 10.6317 16.4598 10.0776V8.61362C16.4598 8.35171 16.4749 8.15157 16.5058 7.99729C16.5372 7.85893 16.6141 7.73586 16.7215 7.6588C16.8296 7.59718 17.0142 7.55052 17.2606 7.52012L17.492 7.50451C17.523 7.47362 17.5382 7.42745 17.523 7.35055C17.523 7.30405 17.5074 7.25804 17.4767 7.22715C17.2917 7.24227 17.1067 7.24227 16.9374 7.25804H16.1057C15.9667 7.24227 15.8124 7.24227 15.6128 7.22715C15.5973 7.48858 15.5048 7.78187 15.3661 8.12084C15.1967 8.47445 14.9967 8.90658 14.7503 9.4148L13.6716 11.5865C13.3919 12.1778 13.1372 12.7405 12.7945 13.3011H12.7637C12.4911 12.7867 12.2397 12.2529 11.9925 11.7255L10.6834 9.10639C10.5141 8.73669 10.3599 8.38276 10.2366 8.05923C10.1287 7.73586 10.0827 7.4585 10.0979 7.22715C9.91326 7.24227 9.74353 7.24227 9.57412 7.25804ZM3.25326 13.1138C3.25326 13.5061 3.23782 13.8047 3.20644 14.0093C3.17539 14.4053 2.91396 14.535 2.5454 14.5604L2.30933 14.5918C2.23341 14.668 2.23926 14.8332 2.32575 14.8903C2.81251 14.86 3.25261 14.8429 3.74099 14.8429C4.26173 14.8429 4.74719 14.8659 5.2663 14.8903C5.29768 14.8589 5.31393 14.8117 5.32954 14.749C5.32954 14.6705 5.31393 14.6228 5.28223 14.5918L4.96764 14.5604C4.71597 14.5441 4.54315 14.497 4.44886 14.4183C4.44317 14.4142 4.43748 14.41 4.43195 14.4056C4.33684 14.3266 4.26872 14.206 4.24011 14.019C4.20889 13.8148 4.19312 13.5166 4.20889 13.1248V12.0247C3.86325 12.0406 3.54931 12.0247 3.26643 11.9777L3.25326 13.1138ZM2.24544 7.37673C2.23 7.43932 2.26154 7.4863 2.30868 7.53378L2.71708 7.58027C2.88957 7.59653 3.01541 7.64335 3.09377 7.72204C3.17213 7.78463 3.21961 7.89486 3.23505 8.06736C3.25098 8.24001 3.26643 8.49185 3.26643 8.82107V11.1453C3.58053 11.161 3.89447 11.161 4.20889 11.1453V7.94168C4.19312 7.81617 4.20889 7.72204 4.24011 7.64335C4.25571 7.59653 4.31863 7.54873 4.397 7.53378C4.49129 7.51801 4.64867 7.51801 4.8527 7.51801C5.4492 7.53378 5.90474 7.6905 6.23445 8.02037C6.54855 8.34975 6.70544 8.80546 6.70544 9.37123C6.7217 9.87343 6.59586 10.2974 6.32891 10.6426C6.09333 10.9416 5.74785 11.161 5.27654 11.271C4.82132 11.381 4.17752 11.4282 3.31358 11.4121C2.5597 11.3973 1.74324 11.3498 0.848083 11.2557C1.83769 11.4597 2.57547 11.6008 3.04695 11.6478C3.81594 11.7426 4.56982 11.7263 5.27654 11.6169C5.63763 11.5693 5.9675 11.4755 6.26599 11.3656C6.54855 11.2401 6.83144 11.0672 7.12977 10.8627C7.30242 10.7374 7.45947 10.5325 7.60108 10.2661C7.71114 10.0147 7.77374 9.71638 7.78918 9.35497C7.77374 8.96219 7.67944 8.61752 7.50695 8.3187C7.33396 8.02037 7.12977 7.78463 6.86265 7.61246C6.59586 7.45509 6.26599 7.32909 5.88913 7.25057C5.52789 7.18797 5.10372 7.15643 4.61713 7.15643C4.14581 7.15643 3.72181 7.15643 3.34512 7.17204C2.9681 7.18797 2.62262 7.20358 2.32397 7.23496C2.27714 7.26666 2.24544 7.31365 2.24544 7.37673Z" fill="white"/>
</svg>
