<svg width="11" height="13" viewBox="0 0 11 13" fill="none" xmlns="http://www.w3.org/2000/svg">
<path d="M5.5 0C3.60154 0 2.0625 1.45509 2.0625 3.25C2.0625 5.04491 3.60154 6.5 5.5 6.5C7.39846 6.5 8.9375 5.04491 8.9375 3.25C8.9375 1.45509 7.39846 0 5.5 0ZM5.5 1.3C6.63912 1.3 7.5625 2.17301 7.5625 3.25C7.5625 4.32698 6.63912 5.2 5.5 5.2C4.36088 5.2 3.4375 4.32698 3.4375 3.25C3.4375 2.17301 4.36088 1.3 5.5 1.3ZM3.0723 7.35312C1.27497 7.81755 0 9.29513 0 11.05V12.35C0 12.709 0.307794 13 0.6875 13H10.3125C10.6922 13 11 12.709 11 12.35V11.05C11 9.29513 9.72503 7.81755 7.9277 7.35312C7.77363 7.31328 7.62224 7.33167 7.47656 7.39375C6.84716 7.66194 6.17712 7.8 5.5 7.8C4.82288 7.8 4.15284 7.66194 3.52344 7.39375C3.37776 7.33167 3.22637 7.31328 3.0723 7.35312ZM3.35156 8.65312C4.0458 8.90136 4.75729 9.1 5.5 9.1C6.24271 9.1 6.9542 8.90136 7.64844 8.65312C8.81952 8.98852 9.625 9.92316 9.625 11.05V11.7H1.375V11.05C1.375 9.92316 2.18047 8.98852 3.35156 8.65312Z" fill="white"/>
</svg>
