<svg width="16" height="17" viewBox="0 0 16 17" fill="none" xmlns="http://www.w3.org/2000/svg">
<path d="M8 0.5C3.5816 0.5 0 4.0816 0 8.5C0 12.9184 3.5816 16.5 8 16.5C12.4184 16.5 16 12.9184 16 8.5C16 4.0816 12.4184 0.5 8 0.5ZM8 2.1C11.5344 2.1 14.4 4.9656 14.4 8.5C14.4 12.0344 11.5344 14.9 8 14.9C4.4656 14.9 1.6 12.0344 1.6 8.5C1.6 4.9656 4.4656 2.1 8 2.1ZM8 4.5C6.904 4.5 5.9512 5.2296 5.6752 6.2752C5.5624 6.7024 5.8232 7.1624 6.2496 7.2752C6.6768 7.388 7.112 7.1272 7.2248 6.7C7.3168 6.3528 7.6344 6.1 8 6.1C8.4408 6.1 8.7984 6.4552 8.8 6.9C8.8016 7.2824 8.59039 7.6824 8.1752 8.1C8.068 8.2072 7.9344 8.312 7.8 8.4248C7.7328 8.4816 7.5368 8.644 7.5 8.6752C7.1624 8.96 7.1152 9.4872 7.4 9.82481C7.6848 10.1632 8.1872 10.1848 8.52481 9.9C8.54881 9.88 8.7704 9.7176 8.8496 9.6504C9.0176 9.5088 9.156 9.36961 9.3 9.2248C9.9872 8.5352 10.4032 7.7872 10.4 6.9C10.3952 5.5752 9.324 4.5 8 4.5ZM8 10.9C7.5584 10.9 7.2 11.2584 7.2 11.7C7.2 12.1416 7.5584 12.5 8 12.5C8.4416 12.5 8.8 12.1416 8.8 11.7C8.8 11.2584 8.4416 10.9 8 10.9Z" fill="white"/>
</svg>
