<svg width="33" height="32" viewBox="0 0 33 32" fill="none" xmlns="http://www.w3.org/2000/svg">
<mask id="mask0_344_805" style="mask-type:alpha" maskUnits="userSpaceOnUse" x="0" y="0" width="33" height="32">
<path d="M32.0919 16C32.0919 7.16344 24.9285 0 16.0919 0C7.25536 0 0.0919189 7.16344 0.0919189 16C0.0919189 24.8366 7.25536 32 16.0919 32C24.9285 32 32.0919 24.8366 32.0919 16Z" fill="white"/>
</mask>
<g mask="url(#mask0_344_805)">
<path d="M32.0919 0H0.0919189V32H32.0919V0Z" fill="#009989"/>
<path d="M7.49838 36.0781C15.8302 41.0844 26.6429 38.3885 31.6492 30.0566C36.6555 21.7248 33.9596 10.9121 25.6277 5.90579C17.2959 0.89951 6.48319 3.59541 1.47691 11.9273C-3.52937 20.2591 -0.833465 31.0718 7.49838 36.0781Z" fill="#EDB92E"/>
<path d="M10.7282 17.7C10.7128 18.5839 11.1662 19.4398 11.9886 20.0793C12.8111 20.7189 13.9352 21.0898 15.1138 21.1103C16.2924 21.1309 17.4288 20.7995 18.2731 20.189C19.1173 19.5786 19.6003 18.739 19.6157 17.8551" fill="black"/>
<path d="M12.1389 13.2795C12.1475 12.7886 11.856 12.3855 11.4879 12.3791C11.1197 12.3726 10.8143 12.7653 10.8058 13.2562C10.7972 13.747 11.0887 14.1501 11.4568 14.1566C11.825 14.163 12.1303 13.7703 12.1389 13.2795Z" fill="black"/>
<path d="M19.2489 13.4036C19.2575 12.9128 18.966 12.5096 18.5979 12.5032C18.2297 12.4968 17.9244 12.8895 17.9158 13.3803C17.9072 13.8712 18.1987 14.2743 18.5668 14.2807C18.935 14.2871 19.2404 13.8944 19.2489 13.4036Z" fill="black"/>
</g>
</svg>
