<svg width="48" height="48" viewBox="0 0 48 48" fill="none" xmlns="http://www.w3.org/2000/svg">
<circle cx="24" cy="24" r="24" fill="#0E141B"/>
<path d="M35.1945 14.2297C34.7653 14.259 34.345 14.2737 33.9357 14.2737C29.1446 14.2737 25.7501 12.319 24.4477 11.4242C24.4133 11.4004 24.3879 11.3839 24.3735 11.3747L24.1797 11.25L24.0891 11.3087L23.9858 11.3747C23.9713 11.3839 23.946 11.4004 23.9116 11.4242C22.4987 12.396 18.6206 14.6147 13.1648 14.2297L12.75 14.2003L12.779 14.6202C12.7826 14.6808 13.1902 20.7281 13.5832 23.3117C14.4654 29.1318 17.2585 32.4506 19.4448 34.2091C21.5079 35.8666 23.5239 36.5451 24.0891 36.657L24.1797 36.6699L24.2286 36.6644C24.7303 36.5801 26.7971 35.9108 28.9145 34.2091C31.1008 32.4506 33.894 29.1318 34.7762 23.3117C35.1691 20.7281 35.5766 14.6808 35.5804 14.6202L35.6093 14.2003L35.1945 14.2297ZM34.0607 23.2017C32.4938 33.5252 24.9259 35.7401 24.1797 35.9327C24.1561 35.9271 24.1253 35.918 24.0891 35.9089C22.9588 35.5917 15.8166 33.197 14.2987 23.2017C13.9709 21.0398 13.6303 16.397 13.5307 14.9851C18.7238 15.2363 22.4933 13.234 24.0891 12.187C24.1199 12.1668 24.1507 12.1467 24.1797 12.1265C25.7211 13.1552 29.534 15.2418 34.8286 14.9851C34.729 16.397 34.3884 21.0398 34.0607 23.2017Z" fill="#0688FF"/>
<path d="M31.5739 17.6202C27.9438 17.8769 25.3663 16.4008 24.4262 15.7554C24.4027 15.7389 24.3845 15.726 24.3737 15.7205L24.1799 15.5958L24.0893 15.6545L23.986 15.7205C23.9752 15.726 23.9571 15.7389 23.9335 15.7554C22.9934 16.4008 20.4159 17.8769 16.7859 17.6202L16.3711 17.5908L16.4001 18.0107C16.411 18.1776 16.6772 22.1199 16.9417 23.8619C17.5412 27.8098 19.4377 30.0743 20.923 31.279C22.2743 32.3756 23.631 32.8762 24.0893 32.9679L24.1799 32.9806L24.2306 32.9751C24.6454 32.9074 26.0455 32.4085 27.4367 31.279C28.922 30.0743 30.8186 27.8098 31.4181 23.8619C31.6825 22.1199 31.9488 18.1776 31.9596 18.0107L31.9887 17.5908L31.5739 17.6202ZM30.7026 23.7501C29.6846 30.4594 24.803 32.0638 24.1799 32.2398C24.1563 32.2325 24.1255 32.2234 24.0893 32.2124C23.1872 31.9336 18.6353 30.2008 17.6572 23.7501C17.447 22.3638 17.2279 19.452 17.1518 18.3738C20.5082 18.5003 22.9717 17.2443 24.0893 16.5292C24.1201 16.509 24.1509 16.4888 24.1799 16.4705C25.2522 17.1728 27.7573 18.504 31.208 18.3738C31.1319 19.452 30.9127 22.3638 30.7026 23.7501Z" fill="#0688FF"/>
<path d="M27.9526 21.0105C26.1485 21.1371 24.8715 20.4054 24.4042 20.0864L24.1795 19.9397L24.089 19.9984L23.9549 20.0864C23.4876 20.4054 22.2106 21.1371 20.4065 21.0105L19.9917 20.9812L20.0207 21.4011C20.0261 21.4855 20.1638 23.5116 20.2996 24.4101C20.8448 28.0151 23.4206 29.1227 24.089 29.273L24.1795 29.2895L24.2285 29.2821C24.8244 29.1703 27.5016 28.0939 28.0595 24.4101C28.1953 23.5116 28.333 21.4855 28.3384 21.4011L28.3674 20.9812L27.9526 21.0105ZM27.344 24.3001C26.8567 27.5108 24.6251 28.3983 24.1795 28.5451C24.1542 28.5377 24.1252 28.5266 24.089 28.512C23.4912 28.292 21.4752 27.333 21.0151 24.3001C20.9191 23.6675 20.8195 22.4078 20.7724 21.7587C22.3066 21.7715 23.4641 21.2397 24.089 20.8657C24.1216 20.8473 24.1506 20.829 24.1795 20.8107C24.7664 21.1774 25.9619 21.7697 27.5867 21.7587C27.5396 22.4078 27.44 23.6675 27.344 24.3001Z" fill="#0688FF"/>
<path d="M28.3675 20.9812L28.3386 21.4011C28.3331 21.4855 28.1955 23.5116 28.0596 24.4101C27.5017 28.0939 24.8245 29.1703 24.2286 29.2821L24.1797 29.2895V28.5451C24.6253 28.3983 26.8569 27.5108 27.3441 24.3001C27.4401 23.6675 27.5397 22.4078 27.5868 21.7587C25.9621 21.7697 24.7666 21.1774 24.1797 20.8107V19.9397L24.4043 20.0864C24.8716 20.4054 26.1486 21.1371 27.9527 21.0105L28.3675 20.9812Z" fill="#0D5292"/>
<path d="M31.9884 17.5908L31.9594 18.0107C31.9485 18.1776 31.6824 22.1199 31.4178 23.8619C30.8183 27.8098 28.9218 30.0743 27.4365 31.279C26.0454 32.4085 24.6452 32.9074 24.2304 32.9751L24.1797 32.9806V32.2398C24.8028 32.0638 29.6844 30.4594 30.7023 23.7501C30.9124 22.3638 31.1317 19.452 31.2077 18.3738C27.7571 18.504 25.252 17.1728 24.1797 16.4705V15.5958L24.3735 15.7205C24.3844 15.726 24.4025 15.7389 24.426 15.7554C25.3661 16.4008 27.9437 17.8769 31.5736 17.6202L31.9884 17.5908Z" fill="#0D5292"/>
<path d="M35.6093 14.2003L35.5803 14.6202C35.5767 14.6808 35.1691 20.7281 34.7761 23.3117C33.8939 29.1318 31.1009 32.4506 28.9146 34.2091C26.7971 35.9108 24.7303 36.5801 24.2286 36.6644L24.1797 36.6699V35.9327C24.926 35.7401 32.4937 33.5252 34.0606 23.2017C34.3886 21.0398 34.7289 16.397 34.8287 14.9851C29.534 15.2418 25.7211 13.1552 24.1797 12.1265V11.25L24.3735 11.3747C24.388 11.3839 24.4134 11.4004 24.4478 11.4242C25.7501 12.319 29.1446 14.2737 33.9356 14.2737C34.345 14.2737 34.7652 14.259 35.1945 14.2297L35.6093 14.2003Z" fill="#0D5292"/>
</svg>
