<svg width="64" height="64" viewBox="0 0 64 64" fill="none" xmlns="http://www.w3.org/2000/svg">
<path d="M61.25 12C61.25 12.588 60.9421 13.4774 59.6609 14.6132C58.383 15.7463 56.3769 16.8923 53.6618 17.9104C48.2521 19.939 40.5941 21.25 32 21.25C23.4059 21.25 15.7479 19.939 10.3382 17.9104C7.62316 16.8923 5.61704 15.7463 4.33909 14.6132C3.05793 13.4774 2.75 12.588 2.75 12C2.75 11.412 3.05793 10.5226 4.33909 9.38677C5.61704 8.25374 7.62316 7.10776 10.3382 6.08962C15.7479 4.06097 23.4059 2.75 32 2.75C40.5941 2.75 48.2521 4.06097 53.6618 6.08962C56.3769 7.10776 58.383 8.25374 59.6609 9.38677C60.9421 10.5226 61.25 11.412 61.25 12Z" stroke="white" stroke-width="5.5"/>
<path d="M5.37444 45.0546C2.90431 46.4207 1.11112 48.0132 0.275364 49.7633V33.9642C0.715856 34.887 1.42157 35.7651 2.34856 36.587C3.18104 37.3251 4.19761 38.0232 5.37444 38.6741V45.0546ZM5.24954 45.7007V51.6107C5.23775 51.6294 5.22989 51.6467 5.22533 51.6595C5.20974 51.7034 5.21065 51.7404 5.21089 51.7501C5.21153 51.7761 5.21622 51.7963 5.21747 51.8017L5.21751 51.8019C5.22111 51.8174 5.22556 51.8302 5.22795 51.8368C5.2336 51.8523 5.24063 51.8683 5.2482 51.884L5.24954 51.8835V52V52.1165L5.2482 52.116C5.24062 52.1316 5.2336 52.1477 5.22795 52.1632C5.22556 52.1698 5.22111 52.1826 5.21751 52.1981L5.21747 52.1983C5.21623 52.2036 5.21158 52.2237 5.2109 52.2495H0.275364V51.5366C0.50082 49.4409 2.25044 47.4365 5.24954 45.7007ZM5.26231 51.895C5.25883 51.8904 5.25579 51.886 5.25319 51.8821L5.37444 51.8355V51.9782C5.36446 51.9745 5.35596 51.9706 5.34912 51.9672C5.32521 51.9552 5.30816 51.9418 5.29841 51.9334C5.27931 51.917 5.26714 51.9014 5.26231 51.895ZM5.24954 51.8403V51.8764C5.24616 51.871 5.24393 51.8669 5.24288 51.8649C5.23759 51.8552 5.23465 51.8481 5.23398 51.8464C5.23377 51.8459 5.23357 51.8454 5.23341 51.845L5.24954 51.8403ZM5.34909 52.0328C5.35594 52.0294 5.36444 52.0255 5.37444 52.0218V52.1645L5.25319 52.1179C5.25578 52.1139 5.25883 52.1096 5.2623 52.105C5.26713 52.0986 5.2793 52.083 5.29839 52.0666C5.30813 52.0582 5.32518 52.0448 5.34909 52.0328ZM5.24954 52.1236V52.1597L5.23341 52.155C5.23357 52.1545 5.23377 52.1541 5.23398 52.1535C5.23465 52.1519 5.23759 52.1448 5.24287 52.135C5.24392 52.1331 5.24616 52.129 5.24954 52.1236ZM5.87537 52.7505V52.6322C5.91376 52.668 5.95437 52.7049 5.9973 52.7429C6.96502 53.6009 8.66481 54.6133 11.2158 55.57C16.2792 57.4687 23.6263 58.7505 32 58.7505C40.3737 58.7505 47.7209 57.4687 52.7842 55.57C55.3352 54.6133 57.035 53.6009 58.0027 52.7429C58.0456 52.7049 58.0862 52.668 58.1246 52.6323V52.7505H58.375H63.6843C63.4587 54.0453 62.6516 55.3022 61.3191 56.4835C59.7309 57.8916 57.4185 59.1711 54.5395 60.2508C48.7833 62.4093 40.8145 63.7495 32 63.7495C23.1855 63.7495 15.2167 62.4093 9.46053 60.2508C6.58153 59.1711 4.26908 57.8916 2.68088 56.4835C1.34845 55.3022 0.541293 54.0453 0.315693 52.7505H5.6249H5.87537ZM63.7246 52.2495H59.2505V52V45.9998C61.9455 47.6662 63.5117 49.5605 63.7246 51.5356V52.2495ZM0.275364 29.492V11.7505H5.37444V24.7832C2.90431 26.1493 1.11112 27.7418 0.275364 29.492ZM0.275364 31.2653C0.50082 29.1695 2.25044 27.1651 5.24954 25.4294V31.3394C5.23775 31.358 5.22989 31.3754 5.22533 31.3882C5.20974 31.432 5.21065 31.469 5.21089 31.4787C5.21153 31.5047 5.21622 31.525 5.21747 31.5304L5.21751 31.5305C5.22111 31.5461 5.22556 31.5588 5.22795 31.5654C5.2336 31.581 5.24063 31.597 5.2482 31.6127L5.24954 31.6122V31.7287V31.8451L5.2482 31.8446C5.24062 31.8603 5.2336 31.8763 5.22795 31.8919C5.22556 31.8985 5.22111 31.9112 5.21751 31.9268L5.21747 31.927C5.21622 31.9324 5.21153 31.9526 5.21089 31.9786C5.21065 31.9883 5.20974 32.0252 5.22532 32.0691C5.23907 32.1077 5.28288 32.1878 5.37444 32.2209V38.0996C4.32837 37.5036 3.42511 36.872 2.68088 36.2122C1.25041 34.9439 0.425361 33.5887 0.275364 32.1927V31.2653ZM5.23341 31.5737L5.24954 31.569V31.6051C5.24616 31.5996 5.24393 31.5955 5.24288 31.5936C5.23759 31.5839 5.23465 31.5767 5.23398 31.5751C5.23377 31.5746 5.23358 31.5741 5.23341 31.5737ZM5.26231 31.6237C5.25883 31.6191 5.25579 31.6147 5.25319 31.6108L5.37444 31.5642V31.7069C5.36446 31.7032 5.35596 31.6993 5.34912 31.6958C5.32521 31.6838 5.30816 31.6704 5.29841 31.6621C5.27931 31.6456 5.26714 31.63 5.26231 31.6237ZM5.34909 31.7615C5.35594 31.758 5.36444 31.7542 5.37444 31.7504V31.8931L5.25319 31.8465C5.25578 31.8426 5.25883 31.8382 5.2623 31.8337C5.26713 31.8273 5.2793 31.8117 5.29839 31.7953C5.30813 31.7869 5.32518 31.7735 5.34909 31.7615ZM5.24954 31.8522V31.8883L5.2334 31.8836C5.23357 31.8832 5.23377 31.8827 5.23398 31.8822C5.23465 31.8806 5.23759 31.8734 5.24287 31.8637C5.24392 31.8618 5.24616 31.8577 5.24954 31.8522ZM5.87537 38.3765V32.3609C5.91376 32.3966 5.95437 32.4335 5.9973 32.4716C6.96501 33.3296 8.66481 34.342 11.2158 35.2986C16.2792 37.1974 23.6263 38.4791 32 38.4791C40.3737 38.4791 47.7209 37.1974 52.7842 35.2986C55.3352 34.342 57.035 33.3296 58.0027 32.4716C58.0456 32.4335 58.0862 32.3967 58.1246 32.361V38.3765C57.0586 38.9482 55.8585 39.4848 54.5395 39.9794C48.7833 42.138 40.8145 43.4782 32 43.4782C23.1855 43.4782 15.2167 42.138 9.46053 39.9794C8.1415 39.4848 6.94139 38.9482 5.87537 38.3765ZM58.6255 38.0997V32.221C58.7168 32.188 58.7607 32.1082 58.7746 32.0693C58.79 32.0261 58.7894 31.9894 58.7892 31.9791H59H59.2505V31.7287V25.7284C61.9455 27.3949 63.5117 29.2892 63.7246 31.2643V32.1936C63.5743 33.5893 62.7493 34.9442 61.3191 36.2122C60.5749 36.872 59.6716 37.5037 58.6255 38.0997ZM58.7377 31.8337C58.7412 31.8383 58.7443 31.8426 58.7468 31.8466L58.6255 31.8932V31.7504C58.6356 31.7542 58.6442 31.7581 58.6511 31.7615C58.6749 31.7735 58.6919 31.7869 58.7017 31.7953C58.7207 31.8117 58.7329 31.8273 58.7377 31.8337ZM58.6255 31.4782V11.7505H63.7246V29.492C62.946 27.8617 61.337 26.3687 59.127 25.0691L58.7496 24.8472V25.285V31.4782L58.6255 31.4782ZM63.7246 33.9644V49.7633C62.946 48.133 61.337 46.64 59.127 45.3404L58.7496 45.1185V45.5563V51.7495H58.6255V38.6741C59.8024 38.0233 60.819 37.3251 61.6515 36.587C62.5784 35.7652 63.2841 34.8871 63.7246 33.9644ZM58.7377 52.105C58.7412 52.1096 58.7443 52.114 58.7468 52.1179L58.6255 52.1645V52.0217C58.6356 52.0255 58.6441 52.0294 58.651 52.0329C58.6749 52.0449 58.6919 52.0582 58.7016 52.0666C58.7155 52.0785 58.7257 52.09 58.7321 52.0978C58.7345 52.1008 58.7364 52.1032 58.7377 52.105Z" fill="white" stroke="white" stroke-width="0.500923"/>
</svg>
