<svg width="17" height="13" viewBox="0 0 17 13" fill="none" xmlns="http://www.w3.org/2000/svg">
<path d="M2.4375 0C1.09127 0 0 1.09119 0 2.4375V4.0625V10.5625C0 11.9088 1.09127 13 2.4375 13H13.8125C15.1587 13 16.25 11.9088 16.25 10.5625V4.0625V2.4375C16.25 1.09119 15.1587 0 13.8125 0H2.4375ZM2.4375 1.625H13.8125C14.2612 1.625 14.625 1.989 14.625 2.4375V3.25H1.625V2.4375C1.625 1.989 1.98876 1.625 2.4375 1.625ZM1.625 4.875H14.625V10.5625C14.625 11.011 14.2612 11.375 13.8125 11.375H2.4375C1.98876 11.375 1.625 11.011 1.625 10.5625V4.875ZM4.0625 6.5C3.61376 6.5 3.25 6.864 3.25 7.3125C3.25 7.51562 3.25 8.73438 3.25 8.9375C3.25 9.386 3.61376 9.75 4.0625 9.75H5.6875C6.13624 9.75 6.5 9.386 6.5 8.9375V7.3125C6.5 6.864 6.13624 6.5 5.6875 6.5H4.0625Z" fill="white"/>
</svg>
